<?xml version="1.0" encoding="UTF-8"?>
<!DOCTYPE svg PUBLIC "-//W3C//DTD SVG 1.1//EN" "http://www.w3.org/Graphics/SVG/1.1/DTD/svg11.dtd">
<!-- Creator: CorelDRAW 2021 (64 Bit) -->
<svg xmlns="http://www.w3.org/2000/svg" xml:space="preserve" width="176.389mm" height="176.389mm" version="1.1" style="shape-rendering:geometricPrecision; text-rendering:geometricPrecision; image-rendering:optimizeQuality; fill-rule:evenodd; clip-rule:evenodd"
viewBox="0 0 17638.88 17638.88"
 xmlns:xlink="http://www.w3.org/1999/xlink"
 xmlns:xodm="http://www.corel.com/coreldraw/odm/2003">
 <defs>
  <style type="text/css">
   <![CDATA[
    .str1 {stroke:#263138;stroke-width:35.28;stroke-miterlimit:10}
    .str2 {stroke:#263138;stroke-width:35.28;stroke-linejoin:round;stroke-miterlimit:22.9256}
    .str3 {stroke:white;stroke-width:35.28;stroke-linejoin:round;stroke-miterlimit:22.9256}
    .str4 {stroke:#263138;stroke-width:105.83;stroke-linecap:round;stroke-linejoin:round;stroke-miterlimit:10}
    .str5 {stroke:white;stroke-width:105.83;stroke-linecap:round;stroke-linejoin:round;stroke-miterlimit:10}
    .str0 {stroke:#263138;stroke-width:35.28;stroke-linecap:round;stroke-linejoin:round;stroke-miterlimit:10}
    .fil1 {fill:none;fill-rule:nonzero}
    .fil4 {fill:#1F62FF;fill-rule:nonzero}
    .fil6 {fill:#1F62FF;fill-rule:nonzero}
    .fil5 {fill:#1F62FF;fill-rule:nonzero}
    .fil2 {fill:#263138;fill-rule:nonzero}
    .fil3 {fill:white;fill-rule:nonzero}
    .fil0 {fill:#00AFEF;fill-rule:nonzero;fill-opacity:0.250980}
   ]]>
  </style>
 </defs>
 <g id="Hand_x0020_1">
  <metadata id="CorelCorpID_0Corel-Layer"/>
  <g id="_3101729266960">
   <g>
    <path class="fil0" d="M16616.14 8406.56c-174.13,1474.65 -847.44,3189.21 -2192.21,3976.87 -2031.83,1190.32 -1861.74,3021.11 -5827.62,3817.03 -618.33,124.15 -1205.13,176.4 -1758.45,166.08 -297.44,-5.52 -585.38,-29.5 -863.05,-70.37 -2520.56,-368.2 -4216.78,-2120.22 -4839.08,-4235.14 -818.95,-2781.48 816.28,-4602.45 1900.14,-5699.6 1083.86,-1097.15 1877.7,-4515.69 5770.28,-5328.77 593.53,-123.7 1200.47,-186.83 1807.25,-171.69 1384.95,33.98 2895.58,488.76 3940.86,1437.96 78.49,71.33 154.8,145.29 229.21,221.47 1452.85,1491.22 2070.19,3875.73 1832.67,5886.16z"/>
    <path class="fil0" d="M16616.14 8406.56c-174.13,1474.65 -847.44,3189.21 -2192.21,3976.87 -2031.83,1190.32 -1861.74,3021.11 -5827.62,3817.03 -618.33,124.15 -1205.13,176.4 -1758.45,166.08 -297.44,-5.52 -585.38,-29.5 -863.05,-70.37 -2520.56,-368.2 -4216.78,-2120.22 -4839.08,-4235.14 -818.95,-2781.48 816.28,-4602.45 1900.14,-5699.6 1083.86,-1097.15 1877.7,-4515.69 5770.28,-5328.77 593.53,-123.7 1200.47,-186.83 1807.25,-171.69 1384.95,33.98 2895.58,488.76 3940.86,1437.96 78.49,71.33 154.8,145.29 229.21,221.47 1452.85,1491.22 2070.19,3875.73 1832.67,5886.16z"/>
   </g>
   <g>
    <line class="fil1 str0" x1="16361.29" y1="9981.03" x2="16896.9" y2= "9981.03" />
    <line class="fil1 str0" x1="797.2" y1="9981.03" x2="16121.09" y2= "9981.03" />
   </g>
   <g>
    <g>
     <polyline class="fil1 str1" points="15538.58,5850.28 15538.58,5574.12 15274.09,5536.29 "/>
     <path class="fil1 str1" d="M15274.09 5536.29c-24.56,-135.28 -77.17,-260.76 -151.89,-370.03"/>
     <polyline class="fil1 str1" points="15122.2,5166.26 15283.03,4951.75 15087.76,4756.47 14874,4916.73 "/>
     <path class="fil1 str1" d="M14874 4916.73c-108.87,-75.37 -233.98,-128.81 -369.06,-154.16"/>
     <polyline class="fil1 str1" points="14504.94,4762.57 14466.97,4497.09 14190.81,4497.09 14152.99,4761.57 "/>
     <path class="fil1 str1" d="M14152.99 4761.57c-135.29,24.57 -260.76,77.18 -370.04,151.9"/>
     <polyline class="fil1 str1" points="13782.95,4913.47 13568.44,4752.63 13373.17,4947.91 13533.43,5161.66 "/>
     <path class="fil1 str1" d="M13533.43 5161.66c-75.38,108.87 -128.82,233.98 -154.17,369.06"/>
     <polyline class="fil1 str1" points="13379.26,5530.72 13113.78,5568.69 13113.78,5844.85 13378.27,5882.68 "/>
     <path class="fil1 str1" d="M13378.27 5882.68c24.56,135.28 77.17,260.76 151.89,370.03"/>
     <polyline class="fil1 str1" points="13530.16,6252.71 13369.33,6467.23 13564.6,6662.5 13778.36,6502.24 "/>
     <path class="fil1 str1" d="M13778.36 6502.24c108.87,75.37 233.98,128.81 369.06,154.16"/>
     <polyline class="fil1 str1" points="14147.42,6656.4 14185.39,6921.88 14461.54,6921.88 14499.37,6657.39 "/>
     <path class="fil1 str1" d="M14499.37 6657.39c135.29,-24.56 260.76,-77.17 370.04,-151.88"/>
     <polyline class="fil1 str1" points="14869.41,6505.51 15083.92,6666.33 15279.19,6471.06 15118.93,6257.31 "/>
     <path class="fil1 str1" d="M15118.93 6257.31c75.38,-108.87 128.81,-233.98 154.16,-369.06"/>
     <line class="fil1 str1" x1="15273.09" y1="5888.25" x2="15538.58" y2= "5850.28" />
     <path class="fil1 str1" d="M14326.18 6379c-369.77,0 -669.52,-299.75 -669.52,-669.52 0,-369.76 299.75,-669.51 669.52,-669.51 369.76,0 669.51,299.75 669.51,669.51 0,369.77 -299.75,669.52 -669.51,669.52z"/>
     <polyline class="fil1 str1" points="16304.03,7498.04 16304.03,7300.55 16114.89,7273.5 "/>
     <path class="fil1 str1" d="M16114.89 7273.5c-17.57,-96.74 -55.19,-186.47 -108.63,-264.62"/>
     <polyline class="fil1 str1" points="16006.26,7008.88 16121.28,6855.48 15981.63,6715.84 15828.77,6830.44 "/>
     <path class="fil1 str1" d="M15828.77 6830.44c-77.85,-53.9 -167.32,-92.12 -263.92,-110.24"/>
     <polyline class="fil1 str1" points="15564.85,6720.2 15537.7,6530.34 15340.21,6530.34 15313.16,6719.48 "/>
     <path class="fil1 str1" d="M15313.16 6719.48c-96.75,17.57 -186.48,55.2 -264.62,108.63"/>
     <polyline class="fil1 str1" points="15048.54,6828.11 14895.14,6713.09 14755.49,6852.73 14870.1,7005.6 "/>
     <path class="fil1 str1" d="M14870.1 7005.6c-53.91,77.85 -92.12,167.32 -110.25,263.92"/>
     <polyline class="fil1 str1" points="14759.85,7269.52 14570,7296.67 14570,7494.16 14759.14,7521.21 "/>
     <path class="fil1 str1" d="M14759.14 7521.21c17.56,96.75 55.19,186.47 108.62,264.62"/>
     <polyline class="fil1 str1" points="14867.76,7785.83 14752.75,7939.23 14892.39,8078.88 15045.25,7964.27 "/>
     <path class="fil1 str1" d="M15045.25 7964.27c77.86,53.9 167.33,92.12 263.93,110.25"/>
     <polyline class="fil1 str1" points="15309.18,8074.52 15336.33,8264.37 15533.81,8264.37 15560.87,8075.23 "/>
     <path class="fil1 str1" d="M15560.87 8075.23c96.74,-17.57 186.47,-55.19 264.62,-108.62"/>
     <polyline class="fil1 str1" points="15825.49,7966.61 15978.89,8081.62 16118.53,7941.98 16003.93,7789.12 "/>
     <path class="fil1 str1" d="M16003.93 7789.12c53.9,-77.86 92.12,-167.33 110.24,-263.93"/>
     <line class="fil1 str1" x1="16114.17" y1="7525.19" x2="16304.03" y2= "7498.04" />
     <path class="fil1 str1" d="M15437.01 7876.14c-264.42,0 -478.78,-214.36 -478.78,-478.78 0,-264.43 214.36,-478.79 478.78,-478.79 264.43,0 478.79,214.36 478.79,478.79 0,264.42 -214.36,478.78 -478.79,478.78z"/>
    </g>
    <g>
     <polyline class="fil1 str1" points="2346.58,7362.18 2346.58,7614.17 2587.93,7648.69 "/>
     <path class="fil1 str1" d="M2587.93 7648.69c22.41,123.44 70.42,237.94 138.6,337.65"/>
     <polyline class="fil1 str1" points="2726.53,7986.34 2579.77,8182.09 2757.96,8360.27 2953.01,8214.03 "/>
     <path class="fil1 str1" d="M2953.01 8214.03c99.34,68.78 213.51,117.55 336.77,140.68"/>
     <polyline class="fil1 str1" points="3289.78,8354.71 3324.43,8596.96 3576.42,8596.96 3610.94,8355.62 "/>
     <path class="fil1 str1" d="M3610.94 8355.62c123.44,-22.42 237.94,-70.43 337.65,-138.61"/>
     <polyline class="fil1 str1" points="3948.59,8217.01 4144.33,8363.77 4322.52,8185.59 4176.28,7990.54 "/>
     <path class="fil1 str1" d="M4176.28 7990.54c68.78,-99.34 117.54,-213.51 140.68,-336.77"/>
     <polyline class="fil1 str1" points="4316.96,7653.77 4559.21,7619.12 4559.21,7367.13 4317.86,7332.61 "/>
     <path class="fil1 str1" d="M4317.86 7332.61c-22.41,-123.45 -70.42,-237.94 -138.6,-337.65"/>
     <polyline class="fil1 str1" points="4179.26,6994.96 4326.02,6799.21 4147.83,6621.03 3952.78,6767.27 "/>
     <path class="fil1 str1" d="M3952.78 6767.27c-99.34,-68.78 -213.5,-117.54 -336.76,-140.68"/>
     <polyline class="fil1 str1" points="3616.02,6626.59 3581.37,6384.34 3329.37,6384.34 3294.86,6625.68 "/>
     <path class="fil1 str1" d="M3294.86 6625.68c-123.45,22.42 -237.95,70.42 -337.66,138.6"/>
     <polyline class="fil1 str1" points="2957.2,6764.28 2761.46,6617.53 2583.27,6795.71 2729.51,6990.77 "/>
     <path class="fil1 str1" d="M2729.51 6990.77c-68.78,99.33 -117.54,213.5 -140.67,336.76"/>
     <line class="fil1 str1" x1="2588.84" y1="7327.53" x2="2346.58" y2= "7362.18" />
     <path class="fil1 str1" d="M3452.9 6879.72c337.4,0 610.93,273.52 610.93,610.93 0,337.41 -273.53,610.93 -610.93,610.93 -337.41,0 -610.93,-273.52 -610.93,-610.93 0,-337.41 273.52,-610.93 610.93,-610.93z"/>
     <polyline class="fil1 str1" points="1723.19,5990.46 1723.19,6144.17 1870.41,6165.22 "/>
     <path class="fil1 str1" d="M1870.41 6165.22c13.67,75.3 42.95,145.14 84.54,205.97"/>
     <polyline class="fil1 str1" points="1954.95,6371.19 1865.43,6490.59 1974.12,6599.28 2093.1,6510.08 "/>
     <path class="fil1 str1" d="M2093.1 6510.08c60.6,41.95 130.24,71.7 205.43,85.81"/>
     <polyline class="fil1 str1" points="2298.53,6595.89 2319.66,6743.66 2473.37,6743.66 2494.43,6596.44 "/>
     <path class="fil1 str1" d="M2494.43 6596.44c75.3,-13.67 145.14,-42.96 205.96,-84.55"/>
     <polyline class="fil1 str1" points="2700.39,6511.89 2819.79,6601.42 2928.49,6492.72 2839.28,6373.75 "/>
     <path class="fil1 str1" d="M2839.28 6373.75c41.96,-60.6 71.7,-130.24 85.81,-205.43"/>
     <polyline class="fil1 str1" points="2925.09,6168.32 3072.86,6147.19 3072.86,5993.48 2925.65,5972.42 "/>
     <path class="fil1 str1" d="M2925.65 5972.42c-13.68,-75.3 -42.96,-145.14 -84.55,-205.96"/>
     <polyline class="fil1 str1" points="2841.1,5766.46 2930.62,5647.06 2821.93,5538.36 2702.95,5627.57 "/>
     <path class="fil1 str1" d="M2702.95 5627.57c-60.6,-41.96 -130.23,-71.7 -205.42,-85.81"/>
     <polyline class="fil1 str1" points="2497.53,5541.76 2476.39,5393.99 2322.68,5393.99 2301.63,5541.21 "/>
     <path class="fil1 str1" d="M2301.63 5541.21c-75.31,13.67 -145.15,42.95 -205.97,84.54"/>
     <polyline class="fil1 str1" points="2095.66,5625.75 1976.26,5536.23 1867.57,5644.92 1956.77,5763.9 "/>
     <path class="fil1 str1" d="M1956.77 5763.9c-41.95,60.6 -71.7,130.24 -85.81,205.42"/>
     <line class="fil1 str1" x1="1870.96" y1="5969.32" x2="1723.19" y2= "5990.46" />
     <path class="fil1 str1" d="M2398.03 5696.16c205.81,0 372.66,166.85 372.66,372.66 0,205.82 -166.85,372.66 -372.66,372.66 -205.82,0 -372.66,-166.84 -372.66,-372.66 0,-205.81 166.84,-372.66 372.66,-372.66z"/>
     <polyline class="fil1 str1" points="7644.55,3185.51 7644.55,3396.6 7846.72,3425.52 "/>
     <path class="fil1 str1" d="M7846.72 3425.52c18.78,103.4 58.99,199.31 116.11,282.84"/>
     <polyline class="fil1 str1" points="7962.83,3708.36 7839.89,3872.33 7989.15,4021.59 8152.54,3899.09 "/>
     <path class="fil1 str1" d="M8152.54 3899.09c83.22,57.62 178.85,98.47 282.1,117.84"/>
     <polyline class="fil1 str1" points="8434.64,4016.93 8463.66,4219.86 8674.76,4219.86 8703.67,4017.69 "/>
     <path class="fil1 str1" d="M8703.67 4017.69c103.41,-18.78 199.32,-58.99 282.84,-116.1"/>
     <polyline class="fil1 str1" points="8986.51,3901.59 9150.48,4024.52 9299.74,3875.26 9177.24,3711.87 "/>
     <path class="fil1 str1" d="M9177.24 3711.87c57.62,-83.21 98.47,-178.84 117.84,-282.1"/>
     <polyline class="fil1 str1" points="9295.08,3429.77 9498.01,3400.75 9498.01,3189.66 9295.84,3160.75 "/>
     <path class="fil1 str1" d="M9295.84 3160.75c-18.77,-103.41 -58.99,-199.32 -116.1,-282.85"/>
     <polyline class="fil1 str1" points="9179.74,2877.9 9302.68,2713.93 9153.42,2564.67 8990.02,2687.17 "/>
     <path class="fil1 str1" d="M8990.02 2687.17c-83.21,-57.62 -178.85,-98.46 -282.1,-117.84"/>
     <polyline class="fil1 str1" points="8707.92,2569.33 8678.9,2366.4 8467.81,2366.4 8438.9,2568.57 "/>
     <path class="fil1 str1" d="M8438.9 2568.57c-103.41,18.78 -199.32,58.99 -282.85,116.1"/>
     <polyline class="fil1 str1" points="8156.05,2684.67 7992.08,2561.74 7842.82,2711 7965.32,2874.39 "/>
     <path class="fil1 str1" d="M7965.32 2874.39c-57.61,83.22 -98.46,178.85 -117.84,282.1"/>
     <line class="fil1 str1" x1="7847.48" y1="3156.49" x2="7644.55" y2= "3185.51" />
     <path class="fil1 str1" d="M8571.28 2781.37c282.64,0 511.76,229.12 511.76,511.76 0,282.64 -229.12,511.76 -511.76,511.76 -282.64,0 -511.76,-229.12 -511.76,-511.76 0,-282.64 229.12,-511.76 511.76,-511.76z"/>
    </g>
   </g>
   <g>
    <path class="fil2 str2" d="M14039.69 10209.84l-10267.25 0 0 -6753.77c0,-155.3 125.89,-281.19 281.18,-281.19l9704.88 0c155.3,0 281.19,125.89 281.19,281.19l0 6753.77z"/>
    <polygon class="fil3 str2" points="15579.76,13319.77 2232.34,13319.77 3772.44,10209.84 14039.69,10209.84 "/>
    <polygon class="fil4 str2" points="13417.79,9652.8 4394.34,9652.8 4394.34,3731.91 13417.79,3731.91 "/>
    <polygon class="fil2 str3" points="8477.78,11194.26 8495.58,10815.3 7953.07,10815.3 7917.14,11194.26 "/>
    <polygon class="fil2 str3" points="9599.07,11194.26 9580.58,10815.3 9038.07,10815.3 9038.43,11194.26 "/>
    <polygon class="fil2 str3" points="12519.03,11599.46 13099.07,11599.46 12962.91,11194.26 12402.28,11194.26 "/>
    <polygon class="fil2 str3" points="7917.14,11194.26 7953.07,10815.3 7410.57,10815.3 7356.49,11194.26 "/>
    <polygon class="fil2 str3" points="6795.86,11194.26 6868.07,10815.3 6325.56,10815.3 6235.2,11194.26 "/>
    <polygon class="fil2 str3" points="11841.63,11194.26 11750.57,10815.3 11208.07,10815.3 11280.99,11194.26 "/>
    <polygon class="fil2 str3" points="12402.28,11194.26 12293.07,10815.3 11750.57,10815.3 11841.63,11194.26 "/>
    <polygon class="fil2 str3" points="6235.2,11194.26 6325.56,10815.3 5783.06,10815.3 5674.57,11194.26 "/>
    <polygon class="fil2 str3" points="10159.71,11194.26 10123.07,10815.3 9580.58,10815.3 9599.07,11194.26 "/>
    <polygon class="fil2 str3" points="12962.91,11194.26 12835.57,10815.3 12293.07,10815.3 12402.28,11194.26 "/>
    <polygon class="fil2 str3" points="11280.99,11194.26 11208.07,10815.3 10665.58,10815.3 10720.35,11194.26 "/>
    <polygon class="fil2 str3" points="10720.35,11194.26 10665.58,10815.3 10123.07,10815.3 10159.71,11194.26 "/>
    <polygon class="fil2 str3" points="9038.43,11194.26 9038.07,10815.3 8495.58,10815.3 8477.78,11194.26 "/>
    <polygon class="fil2 str3" points="5113.93,11194.26 4553.29,11194.26 4398.49,11599.46 4978.51,11599.46 "/>
    <polygon class="fil2 str3" points="5240.57,10815.3 4698.07,10815.3 4553.29,11194.26 5113.93,11194.26 "/>
    <polygon class="fil2 str3" points="5674.57,11194.26 5783.06,10815.3 5240.57,10815.3 5113.93,11194.26 "/>
    <polygon class="fil2 str3" points="4232.58,12033.69 4054.35,12500.18 4677.5,12500.18 4833.41,12033.69 "/>
    <polygon class="fil2 str3" points="4978.51,11599.46 4398.49,11599.46 4232.58,12033.69 4833.41,12033.69 "/>
    <polygon class="fil2 str3" points="4833.41,12033.69 4677.5,12500.18 5300.67,12500.18 5434.23,12033.69 "/>
    <polygon class="fil2 str3" points="7356.49,11194.26 7410.57,10815.3 6868.07,10815.3 6795.86,11194.26 "/>
    <polygon class="fil2 str3" points="7298.67,11599.46 7356.49,11194.26 6795.86,11194.26 6718.63,11599.46 "/>
    <polygon class="fil2 str3" points="6718.63,11599.46 6795.86,11194.26 6235.2,11194.26 6138.6,11599.46 "/>
    <polygon class="fil2 str3" points="7878.72,11599.46 7917.14,11194.26 7356.49,11194.26 7298.67,11599.46 "/>
    <polygon class="fil2 str3" points="5674.57,11194.26 5113.93,11194.26 4978.51,11599.46 5558.56,11599.46 "/>
    <polygon class="fil2 str3" points="12644.16,12033.69 13244.99,12033.69 13099.07,11599.46 12519.03,11599.46 "/>
    <polygon class="fil2 str3" points="6138.6,11599.46 6235.2,11194.26 5674.57,11194.26 5558.56,11599.46 "/>
    <polygon class="fil2 str3" points="4978.51,11599.46 4833.41,12033.69 5434.23,12033.69 5558.56,11599.46 "/>
    <polygon class="fil2 str3" points="11358.95,11599.46 11280.99,11194.26 10720.35,11194.26 10778.92,11599.46 "/>
    <polygon class="fil2 str3" points="10778.92,11599.46 10720.35,11194.26 10159.71,11194.26 10198.87,11599.46 "/>
    <polygon class="fil2 str3" points="12519.03,11599.46 12402.28,11194.26 11841.63,11194.26 11938.98,11599.46 "/>
    <polygon class="fil2 str3" points="9038.79,11599.46 9038.43,11194.26 8477.78,11194.26 8458.76,11599.46 "/>
    <polygon class="fil2 str3" points="10198.87,11599.46 10159.71,11194.26 9599.07,11194.26 9618.85,11599.46 "/>
    <polygon class="fil2 str3" points="9618.85,11599.46 9599.07,11194.26 9038.43,11194.26 9038.79,11599.46 "/>
    <polygon class="fil2 str3" points="8458.76,11599.46 8477.78,11194.26 7917.14,11194.26 7878.72,11599.46 "/>
    <polygon class="fil2 str3" points="10198.87,11599.46 10240.85,12033.69 10841.69,12033.69 10778.92,11599.46 "/>
    <polygon class="fil2 str3" points="10778.92,11599.46 10841.69,12033.69 11442.5,12033.69 11358.95,11599.46 "/>
    <polygon class="fil2 str3" points="5558.56,11599.46 5434.23,12033.69 6035.06,12033.69 6138.6,11599.46 "/>
    <polygon class="fil2 str3" points="11358.95,11599.46 11442.5,12033.69 12043.32,12033.69 11938.98,11599.46 "/>
    <polygon class="fil2 str3" points="9038.79,11599.46 9039.2,12033.69 9640.03,12033.69 9618.85,11599.46 "/>
    <polygon class="fil2 str3" points="11938.98,11599.46 12043.32,12033.69 12644.16,12033.69 12519.03,11599.46 "/>
    <polygon class="fil2 str3" points="9618.85,11599.46 9640.03,12033.69 10240.85,12033.69 10198.87,11599.46 "/>
    <polygon class="fil2 str3" points="6718.63,11599.46 6635.89,12033.69 7236.72,12033.69 7298.67,11599.46 "/>
    <polygon class="fil2 str3" points="6138.6,11599.46 6035.06,12033.69 6635.89,12033.69 6718.63,11599.46 "/>
    <polygon class="fil2 str3" points="8458.76,11599.46 8438.37,12033.69 9039.2,12033.69 9038.79,11599.46 "/>
    <polygon class="fil2 str3" points="7878.72,11599.46 7837.54,12033.69 8438.37,12033.69 8458.76,11599.46 "/>
    <polygon class="fil2 str3" points="7298.67,11599.46 7236.72,12033.69 7837.54,12033.69 7878.72,11599.46 "/>
    <polygon class="fil2 str3" points="11938.98,11599.46 11841.63,11194.26 11280.99,11194.26 11358.95,11599.46 "/>
    <polygon class="fil2 str3" points="5240.57,10815.3 5370.19,10427.43 4846.27,10427.43 4698.07,10815.3 "/>
    <polygon class="fil2 str3" points="4698.07,10815.3 4197.3,10815.3 4035.77,11194.26 4553.29,11194.26 "/>
    <polygon class="fil2 str3" points="4846.27,10427.43 4362.63,10427.43 4197.3,10815.3 4698.07,10815.3 "/>
    <polygon class="fil2 str3" points="4553.29,11194.26 4035.77,11194.26 3863.05,11599.46 4398.49,11599.46 "/>
    <polygon class="fil2 str3" points="4398.49,11599.46 3863.05,11599.46 3677.97,12033.69 4232.58,12033.69 "/>
    <polygon class="fil2 str3" points="4232.58,12033.69 3677.97,12033.69 3479.12,12500.18 4054.35,12500.18 "/>
    <polygon class="fil2 str3" points="13523.55,11194.26 13679.11,11599.46 14192.23,11599.46 14019.51,11194.26 "/>
    <polygon class="fil2 str3" points="13845.8,12033.69 14377.31,12033.69 14192.23,11599.46 13679.11,11599.46 "/>
    <polygon class="fil2 str3" points="14024.9,12500.18 14576.16,12500.18 14377.31,12033.69 13845.8,12033.69 "/>
    <polygon class="fil2 str3" points="9580.58,10815.3 9561.66,10427.43 9037.71,10427.43 9038.07,10815.3 "/>
    <polygon class="fil2 str3" points="13523.55,11194.26 14019.51,11194.26 13857.99,10815.3 13378.08,10815.3 "/>
    <polygon class="fil2 str3" points="13244.99,12033.69 13845.8,12033.69 13679.11,11599.46 13099.07,11599.46 "/>
    <polygon class="fil2 str3" points="5783.06,10815.3 5894.12,10427.43 5370.19,10427.43 5240.57,10815.3 "/>
    <polygon class="fil2 str3" points="12835.57,10815.3 12962.91,11194.26 13523.55,11194.26 13378.08,10815.3 "/>
    <polygon class="fil2 str3" points="13857.99,10815.3 13692.65,10427.43 13229.17,10427.43 13378.08,10815.3 "/>
    <polygon class="fil2 str3" points="13378.08,10815.3 13229.17,10427.43 12705.24,10427.43 12835.57,10815.3 "/>
    <polygon class="fil2 str3" points="11442.5,12033.69 11532.26,12500.18 12155.42,12500.18 12043.32,12033.69 "/>
    <polygon class="fil2 str3" points="13401.73,12500.18 14024.9,12500.18 13845.8,12033.69 13244.99,12033.69 "/>
    <polygon class="fil2 str3" points="12835.57,10815.3 12705.24,10427.43 12181.3,10427.43 12293.07,10815.3 "/>
    <polygon class="fil2 str3" points="12644.16,12033.69 12778.58,12500.18 13401.73,12500.18 13244.99,12033.69 "/>
    <polygon class="fil2 str3" points="12043.32,12033.69 12155.42,12500.18 12778.58,12500.18 12644.16,12033.69 "/>
    <polygon class="fil2 str3" points="13099.07,11599.46 13679.11,11599.46 13523.55,11194.26 12962.91,11194.26 "/>
    <polygon class="fil2 str3" points="7953.07,10815.3 7989.86,10427.43 7465.92,10427.43 7410.57,10815.3 "/>
    <polygon class="fil2 str3" points="12293.07,10815.3 12181.3,10427.43 11657.37,10427.43 11750.57,10815.3 "/>
    <polygon class="fil2 str3" points="7410.57,10815.3 7465.92,10427.43 6941.99,10427.43 6868.07,10815.3 "/>
    <polygon class="fil2 str3" points="9038.07,10815.3 9037.71,10427.43 8513.79,10427.43 8495.58,10815.3 "/>
    <polygon class="fil2 str3" points="6868.07,10815.3 6941.99,10427.43 6418.06,10427.43 6325.56,10815.3 "/>
    <polygon class="fil2 str3" points="6325.56,10815.3 6418.06,10427.43 5894.12,10427.43 5783.06,10815.3 "/>
    <polygon class="fil2 str3" points="8495.58,10815.3 8513.79,10427.43 7989.86,10427.43 7953.07,10815.3 "/>
    <polygon class="fil2 str3" points="11750.57,10815.3 11657.37,10427.43 11133.44,10427.43 11208.07,10815.3 "/>
    <polygon class="fil2 str3" points="11208.07,10815.3 11133.44,10427.43 10609.51,10427.43 10665.58,10815.3 "/>
    <polygon class="fil2 str3" points="10123.07,10815.3 10085.58,10427.43 9561.66,10427.43 9580.58,10815.3 "/>
    <polygon class="fil2 str3" points="11442.5,12033.69 10841.69,12033.69 10240.85,12033.69 9640.03,12033.69 9039.2,12033.69 8438.37,12033.69 7837.54,12033.69 7236.72,12033.69 6635.89,12033.69 6035.06,12033.69 5434.23,12033.69 5300.67,12500.19 5923.82,12500.19 6546.98,12500.19 7170.14,12500.19 7793.3,12500.19 8416.47,12500.19 9039.62,12500.19 9662.79,12500.19 10285.95,12500.19 10909.09,12500.19 11532.26,12500.19 "/>
    <polygon class="fil2 str3" points="10665.58,10815.3 10609.51,10427.43 10085.58,10427.43 10123.07,10815.3 "/>
    <polygon class="fil2 str2" points="15585.85,13509.25 2232.34,13509.25 2232.34,13319.77 15585.85,13319.77 "/>
   </g>
   <g>
    <g>
     <line class="fil1 str4" x1="4976.09" y1="4198.83" x2="5557.83" y2= "4198.83" />
     <line class="fil1 str5" x1="4976.09" y1="4497.56" x2="7161.56" y2= "4497.56" />
     <line class="fil1 str5" x1="8356.49" y1="4497.56" x2="10541.96" y2= "4497.56" />
     <line class="fil1 str4" x1="7303.07" y1="4497.56" x2="8167.82" y2= "4497.56" />
     <line class="fil1 str4" x1="4976.09" y1="4796.29" x2="6233.91" y2= "4796.29" />
     <line class="fil1 str4" x1="6391.14" y1="4796.29" x2="7648.97" y2= "4796.29" />
     <line class="fil1 str4" x1="7806.2" y1="4796.29" x2="9064.02" y2= "4796.29" />
     <line class="fil1 str4" x1="9221.25" y1="4796.29" x2="9755.82" y2= "4796.29" />
     <line class="fil1 str4" x1="5715.06" y1="4198.83" x2="6296.81" y2= "4198.83" />
     <g>
      <line class="fil1 str4" x1="9174.08" y1="4198.83" x2="9755.82" y2= "4198.83" />
      <line class="fil1 str5" x1="8403.66" y1="4198.83" x2="8985.4" y2= "4198.83" />
      <line class="fil1 str4" x1="6454.03" y1="4198.83" x2="8152.1" y2= "4198.83" />
     </g>
    </g>
    <g>
     <line class="fil1 str4" x1="4976.09" y1="6022.67" x2="5557.83" y2= "6022.67" />
     <line class="fil1 str5" x1="4976.09" y1="6321.41" x2="7161.56" y2= "6321.41" />
     <line class="fil1 str4" x1="8356.49" y1="6321.41" x2="10541.96" y2= "6321.41" />
     <line class="fil1 str4" x1="7303.07" y1="6321.41" x2="8167.82" y2= "6321.41" />
     <line class="fil1 str4" x1="4976.09" y1="6620.14" x2="6233.91" y2= "6620.14" />
     <line class="fil1 str4" x1="6391.14" y1="6620.14" x2="7648.97" y2= "6620.14" />
     <line class="fil1 str5" x1="7806.2" y1="6620.14" x2="9064.02" y2= "6620.14" />
     <line class="fil1 str4" x1="9221.25" y1="6620.14" x2="9755.82" y2= "6620.14" />
     <line class="fil1 str4" x1="5715.06" y1="6022.67" x2="6296.81" y2= "6022.67" />
     <g>
      <line class="fil1 str4" x1="9174.08" y1="6022.67" x2="9755.82" y2= "6022.67" />
      <line class="fil1 str5" x1="8403.66" y1="6022.67" x2="8985.4" y2= "6022.67" />
      <line class="fil1 str4" x1="6454.03" y1="6022.67" x2="8152.1" y2= "6022.67" />
     </g>
    </g>
    <g>
     <line class="fil1 str4" x1="4976.09" y1="8711.27" x2="5557.83" y2= "8711.27" />
     <line class="fil1 str5" x1="4976.09" y1="9010" x2="7161.56" y2= "9010" />
     <line class="fil1 str4" x1="8356.49" y1="9010" x2="10541.96" y2= "9010" />
     <line class="fil1 str4" x1="7303.07" y1="9010" x2="8167.82" y2= "9010" />
     <line class="fil1 str4" x1="4976.09" y1="9308.73" x2="6233.91" y2= "9308.73" />
     <line class="fil1 str4" x1="6391.14" y1="9308.73" x2="7648.97" y2= "9308.73" />
     <line class="fil1 str5" x1="7806.2" y1="9308.73" x2="9064.02" y2= "9308.73" />
     <line class="fil1 str4" x1="9221.25" y1="9308.73" x2="9755.82" y2= "9308.73" />
     <line class="fil1 str4" x1="5715.06" y1="8711.27" x2="6296.81" y2= "8711.27" />
     <g>
      <line class="fil1 str4" x1="9174.08" y1="8711.27" x2="9755.82" y2= "8711.27" />
      <line class="fil1 str5" x1="8403.66" y1="8711.27" x2="8985.4" y2= "8711.27" />
      <line class="fil1 str4" x1="6454.03" y1="8711.27" x2="8152.1" y2= "8711.27" />
     </g>
    </g>
    <g>
     <g>
      <line class="fil1 str4" x1="8246.43" y1="5110.75" x2="8828.18" y2= "5110.75" />
      <line class="fil1 str4" x1="7476.02" y1="5110.75" x2="8057.76" y2= "5110.75" />
      <line class="fil1 str4" x1="5526.39" y1="5110.75" x2="7224.45" y2= "5110.75" />
     </g>
     <g>
      <line class="fil1 str4" x1="8246.43" y1="5645.33" x2="8828.18" y2= "5645.33" />
      <line class="fil1 str4" x1="7476.02" y1="5645.33" x2="8057.76" y2= "5645.33" />
      <line class="fil1 str5" x1="5526.39" y1="5645.33" x2="7224.45" y2= "5645.33" />
     </g>
     <g>
      <line class="fil1 str4" x1="6108.13" y1="5378.04" x2="5526.39" y2= "5378.04" />
      <line class="fil1 str4" x1="6878.55" y1="5378.04" x2="6296.81" y2= "5378.04" />
      <line class="fil1 str5" x1="8828.18" y1="5378.04" x2="7130.11" y2= "5378.04" />
     </g>
    </g>
    <g>
     <g>
      <line class="fil1 str4" x1="8246.43" y1="6981.77" x2="8828.18" y2= "6981.77" />
      <line class="fil1 str4" x1="7476.02" y1="6981.77" x2="8057.76" y2= "6981.77" />
      <line class="fil1 str4" x1="5526.39" y1="6981.77" x2="7224.45" y2= "6981.77" />
     </g>
     <g>
      <line class="fil1 str4" x1="8246.43" y1="7516.34" x2="8828.18" y2= "7516.34" />
      <line class="fil1 str4" x1="7476.02" y1="7516.34" x2="8057.76" y2= "7516.34" />
      <line class="fil1 str5" x1="5526.39" y1="7516.34" x2="7224.45" y2= "7516.34" />
     </g>
     <g>
      <line class="fil1 str4" x1="6108.13" y1="7249.05" x2="5526.39" y2= "7249.05" />
      <line class="fil1 str4" x1="6878.55" y1="7249.05" x2="6296.81" y2= "7249.05" />
      <line class="fil1 str5" x1="8828.18" y1="7249.05" x2="7130.11" y2= "7249.05" />
     </g>
    </g>
    <g>
     <g>
      <line class="fil1 str4" x1="6108.13" y1="7830.8" x2="5526.39" y2= "7830.8" />
      <line class="fil1 str4" x1="6878.55" y1="7830.8" x2="6296.81" y2= "7830.8" />
      <line class="fil1 str5" x1="8828.18" y1="7830.8" x2="7130.11" y2= "7830.8" />
     </g>
     <g>
      <line class="fil1 str4" x1="6108.13" y1="8365.37" x2="5526.39" y2= "8365.37" />
      <line class="fil1 str4" x1="6878.55" y1="8365.37" x2="6296.81" y2= "8365.37" />
      <line class="fil1 str5" x1="8828.18" y1="8365.37" x2="7130.11" y2= "8365.37" />
     </g>
     <g>
      <line class="fil1 str4" x1="8246.43" y1="8098.08" x2="8828.18" y2= "8098.08" />
      <line class="fil1 str4" x1="7476.02" y1="8098.08" x2="8057.76" y2= "8098.08" />
      <line class="fil1 str5" x1="5526.39" y1="8098.08" x2="7224.45" y2= "8098.08" />
     </g>
    </g>
    <g>
     <polygon class="fil2" points="4760.3,4278.54 4574.55,4278.54 4574.55,4095.08 4760.3,4095.08 "/>
     <polygon class="fil2" points="4760.3,4579.92 4574.55,4579.92 4574.55,4396.47 4760.3,4396.47 "/>
     <polygon class="fil2" points="4760.3,4881.31 4574.55,4881.31 4574.55,4697.86 4760.3,4697.86 "/>
     <polygon class="fil2" points="4760.3,5182.69 4574.55,5182.69 4574.55,4999.24 4760.3,4999.24 "/>
     <polygon class="fil2" points="4760.3,5484.08 4574.55,5484.08 4574.55,5300.63 4760.3,5300.63 "/>
     <polygon class="fil2" points="4760.3,5785.46 4574.55,5785.46 4574.55,5602.01 4760.3,5602.01 "/>
     <polygon class="fil2" points="4760.3,6086.85 4574.55,6086.85 4574.55,5903.4 4760.3,5903.4 "/>
     <polygon class="fil2" points="4760.3,6388.23 4574.55,6388.23 4574.55,6204.78 4760.3,6204.78 "/>
     <polygon class="fil2" points="4760.3,6689.61 4574.55,6689.61 4574.55,6506.16 4760.3,6506.16 "/>
     <polygon class="fil2" points="4760.3,6991 4574.55,6991 4574.55,6807.55 4760.3,6807.55 "/>
     <polygon class="fil2" points="4760.3,7292.38 4574.55,7292.38 4574.55,7108.93 4760.3,7108.93 "/>
     <polygon class="fil2" points="4760.3,7593.77 4574.55,7593.77 4574.55,7410.32 4760.3,7410.32 "/>
     <polygon class="fil2" points="4760.3,7895.15 4574.55,7895.15 4574.55,7711.7 4760.3,7711.7 "/>
     <polygon class="fil2" points="4760.3,8196.54 4574.55,8196.54 4574.55,8013.09 4760.3,8013.09 "/>
     <polygon class="fil2" points="4760.3,8497.92 4574.55,8497.92 4574.55,8314.47 4760.3,8314.47 "/>
     <polygon class="fil2" points="4760.3,8799.31 4574.55,8799.31 4574.55,8615.86 4760.3,8615.86 "/>
     <polygon class="fil2" points="4760.3,9100.68 4574.55,9100.68 4574.55,8917.23 4760.3,8917.23 "/>
     <polygon class="fil2" points="4760.3,9402.07 4574.55,9402.07 4574.55,9218.61 4760.3,9218.61 "/>
    </g>
   </g>
   <g>
    <path class="fil2 str2" d="M13406.9 799.45c-1114.31,0 -2017.64,903.32 -2017.64,2017.63 0,573.29 239.5,1090.31 623.41,1457.63l-287.14 535.98 704.19 -228.38c289.55,160.64 622.59,252.41 977.18,252.41 1114.3,0 2017.63,-903.33 2017.63,-2017.64 0,-1114.31 -903.33,-2017.63 -2017.63,-2017.63z"/>
    <path class="fil3 str2" d="M13310.82 655.33c-1114.31,0 -2017.64,903.33 -2017.64,2017.63 0,573.29 239.5,1090.32 623.41,1457.63l-287.14 535.99 704.19 -228.38c289.55,160.63 622.59,252.4 977.18,252.4 1114.31,0 2017.63,-903.32 2017.63,-2017.64 0,-1114.3 -903.32,-2017.63 -2017.63,-2017.63z"/>
   </g>
   <g>
    <polygon class="fil5" points="12635.2,3504.46 11859.91,2956.87 11859.91,2666.79 12635.2,2113.78 12635.2,2406.55 12079.47,2810.48 12635.2,3214.41 "/>
    <polygon class="fil5" points="12871.02,3602.06 13461.98,1406.25 13714.1,1406.25 13120.42,3602.06 "/>
    <polygon class="fil5" points="13949.92,3504.46 13949.92,3214.41 14508.37,2807.76 13949.92,2406.55 13949.92,2113.78 14727.97,2664.1 14727.97,2954.15 "/>
   </g>
   <g>
    <polygon class="fil2" points="12731.28,3384.36 11955.99,2836.77 11955.99,2546.69 12731.28,1993.69 12731.28,2286.46 12175.55,2690.38 12731.28,3094.31 "/>
    <polygon class="fil2" points="12967.1,3481.96 13558.05,1286.15 13810.18,1286.15 13216.5,3481.96 "/>
    <polygon class="fil2" points="14046,3384.36 14046,3094.31 14604.45,2687.66 14046,2286.46 14046,1993.69 14824.04,2544 14824.04,2834.05 "/>
   </g>
   <g>
    <path class="fil2 str2" d="M6760.89 12458.78c0,0 -800.02,950.88 -1040.21,1143.03 -240.2,192.16 -456.37,312.26 -456.37,312.26l-864.7 864.7c0,0 24.01,120.09 -216.18,264.21 -240.19,144.12 -720.58,312.25 -840.68,360.29 -120.1,48.04 -1441.17,648.53 -1441.17,648.53l4859.31 -3593.02z"/>
    <path class="fil3 str2" d="M7921.72 11003.55c-84.12,25.23 -386.94,8.41 -386.94,8.41 0,0 -185.06,-143 -277.59,-227.12 -92.53,-84.12 -328.06,-580.41 -445.83,-605.65 -117.76,-25.23 -614.05,260.77 -614.05,260.77 0,0 -403.77,-176.65 -504.71,-159.83 -100.94,16.83 -429,311.24 -429,311.24 0,0 -454.24,-67.29 -538.36,67.29 -84.11,134.59 -218.7,563.59 -353.29,832.77 -134.59,269.17 -622.47,984.17 -622.47,984.17l-67.3 92.54c0,0 100.94,33.64 412.18,193.46 311.24,159.83 807.53,916.89 807.53,916.89 0,0 689.77,-319.65 1076.71,-496.3 386.94,-176.64 698.17,-563.58 782.29,-723.41 84.12,-159.82 227.12,-311.23 403.77,-454.23 176.64,-143 504.7,-201.89 580.41,-302.83 75.71,-100.94 -50.47,-252.35 -50.47,-252.35 0,0 92.53,-50.47 134.59,-84.12 42.06,-33.64 210.29,-126.17 227.11,-227.11 16.83,-100.95 -50.47,-159.83 -134.58,-134.59zm-1295.42 807.53l0 0 159.83 -487.89c67.29,50.47 361.7,159.83 361.7,159.83 -193.47,50.47 -521.53,328.06 -521.53,328.06z"/>
    <path class="fil1 str0" d="M4943.95 11146.55c0,0 -25.23,-143 -8.41,-193.48 16.82,-50.46 328.06,-361.7 328.06,-361.7"/>
    <polyline class="fil1 str0" points="5213.13,11314.78 5280.42,11096.08 6197.3,10439.96 "/>
    <path class="fil1 str0" d="M5667.36 11474.61c0,0 33.65,-210.3 75.71,-243.94 42.06,-33.65 361.71,-109.36 361.71,-109.36 0,0 487.88,-420.59 571.99,-420.59 84.12,0 698.18,328.06 858.01,311.24"/>
    <path class="fil1 str0" d="M7803.95 11045.61c0,0 -109.55,0.34 -50.67,67.64 58.88,67.29 185.06,33.64 243.94,16.82"/>
    <path class="fil1 str0" d="M7147.83 11483.02c0,0 302.83,-176.65 546.77,-33.65"/>
    <line class="fil1 str0" x1="7618.89" y1="11499.84" x2="7450.66" y2= "11558.72" />
    <path class="fil1 str0" d="M7450.66 11558.72c0,0 67.29,134.59 75.71,185.06 8.41,50.47 8.41,50.47 8.41,50.47"/>
    <line class="fil1 str0" x1="6626.3" y1="11811.08" x2="6474.89" y2= "12147.55" />
    <path class="fil4 str2" d="M2630.72 13114.9c0,0 529.94,-344.88 723.41,-487.88 193.47,-143 294.41,-117.77 395.35,-151.42 100.94,-33.64 605.65,117.77 942.12,538.36 336.47,420.59 302.82,731.82 260.76,815.94 -42.06,84.12 -1101.94,723.41 -1101.94,723.41 0,0 -151.41,-605.65 -597.23,-967.35 -445.83,-361.71 -622.47,-471.06 -622.47,-471.06z"/>
    <path class="fil6 str2" d="M510.95 14121.27c0,0 981.7,-599.9 1145.32,-698.39 163.62,-98.5 353.07,-232.8 353.07,-232.8 0,0 51.67,-259.66 301.4,-268.61 249.73,-8.96 490.85,89.53 818.08,268.61 327.24,179.07 731.98,832.7 775.03,1092.36 43.06,259.65 129.17,340.24 60.28,510.36 -68.89,170.12 -327.23,179.08 -378.9,179.08 -51.67,0 -172.23,107.44 -172.23,107.44l-1842.85 1199.8 -1059.2 -2157.85z"/>
    <path class="fil1 str0" d="M3557.07 14515.98c0,0 77.04,57.21 -77.04,297.51"/>
    <path class="fil1 str0" d="M3447.02 14630.41c0,0 -11.01,251.74 -242.12,480.6"/>
   </g>
   <g>
    <path class="fil2 str2" d="M11776.9 13530.06l1221.67 1008.51c0,0 72.05,192.16 240.19,408.33 168.14,216.18 2137.73,1032.84 2137.73,1032.84l336.27 96.08 -3674.97 -2762.24 -260.89 216.48z"/>
    <path class="fil3 str2" d="M14156.1 12728.91c0,0 -327.74,-400.58 -473.41,-655.5 -145.66,-254.91 -352.03,-849.71 -509.83,-1201.74 -157.8,-352.02 -388.44,-461.27 -667.63,-570.52 -279.19,-109.25 -388.44,-84.97 -388.44,-12.14 0,72.83 109.25,206.36 109.25,206.36l-473.42 84.97c0,0 -194.22,-109.24 -315.6,-72.83 -121.39,36.42 -352.03,267.05 -352.03,267.05 0,0 -242.76,-84.97 -388.43,-48.55 -145.67,36.41 -546.24,230.64 -716.19,315.61 -169.94,84.97 -352.02,97.11 -339.88,169.94 12.14,72.83 182.08,194.22 339.88,169.94 157.81,-24.28 424.86,-121.38 594.8,-121.38 169.95,0 254.92,36.41 339.88,97.1 84.97,60.7 436.99,558.39 485.55,619.08 48.56,60.7 97.11,303.47 97.11,303.47 0,0 -214.03,-91.47 -347.55,-212.86 -133.53,-121.39 -324.55,-406.07 -543.05,-430.35 -218.5,-24.27 -456.79,169.8 -335.41,266.91 121.39,97.11 242.78,157.8 327.75,267.05 84.97,109.25 218.5,437 449.13,789.02 230.63,352.03 728.32,570.52 728.32,570.52l1031.8 424.86c0,0 267.05,-631.21 764.74,-801.16 497.69,-169.94 643.36,-242.77 643.36,-242.77l-60.7 -182.08z"/>
    <path class="fil1 str0" d="M9640.49 11211.56c0,0 118.36,-30.14 152.45,-41.5 34.09,-11.36 73.86,-45.45 73.86,-45.45"/>
    <path class="fil1 str0" d="M11084.99 10774.56c0,0 559.14,312.74 716.94,397.71 64.88,34.94 218.59,106.83 266,265.99 56.03,188.11 169.26,290.17 169.26,290.17"/>
    <path class="fil1 str0" d="M11752.62 10580.34c0,0 546.25,424.86 582.66,437 36.42,12.14 169.95,24.28 230.64,133.53 60.7,109.25 121.39,230.63 121.39,230.63"/>
    <path class="fil1 str0" d="M12226.04 10495.37c0,0 194.22,-36.41 267.05,109.25 72.83,145.66 388.44,497.69 388.44,497.69"/>
    <path class="fil1 str0" d="M10490.2 12061.27c0,0 145.66,-72.83 72.83,-182.08 -72.83,-109.25 -218.49,-109.25 -218.49,-109.25"/>
    <path class="fil4 str2" d="M14131.82 12571.1c0,0 -655.49,169.94 -1068.21,631.22 -412.72,461.27 -412.72,849.71 -376.3,910.41 36.41,60.69 825.44,485.55 825.44,485.55 0,0 485.55,-934.69 825.43,-1165.33 339.89,-230.63 582.67,-291.33 582.67,-291.33 0,0 -606.94,-388.44 -631.22,-436.99 -24.28,-48.56 -72.83,-169.94 -157.81,-133.53z"/>
    <path class="fil4" d="M17146.71 13790.73l-1169.79 2434.14c0,0 -667.63,-339.88 -825.44,-424.85 -157.8,-84.97 -1238.15,-667.64 -1238.15,-667.64 0,0 -133.53,-36.41 -206.36,-72.83 -72.84,-36.41 -182.08,-24.28 -230.64,-279.19 -48.56,-254.92 72.83,-764.74 619.08,-1274.57 546.24,-509.83 886.13,-485.55 886.13,-485.55 0,0 230.64,-24.28 291.33,24.27 60.69,48.56 72.83,194.23 133.52,218.5 60.7,24.28 1740.32,527.72 1740.32,527.72z"/>
    <path class="fil1 str0" d="M15976.92 16224.87c0,0 -667.63,-339.88 -825.44,-424.85 -157.8,-84.97 -1238.15,-667.64 -1238.15,-667.64 0,0 -133.53,-36.41 -206.36,-72.83 -72.84,-36.41 -182.08,-24.28 -230.64,-279.19 -48.56,-254.92 72.83,-764.74 619.08,-1274.57 546.24,-509.83 886.13,-485.55 886.13,-485.55 0,0 230.64,-24.28 291.33,24.27 60.69,48.56 72.83,194.23 133.52,218.5 60.7,24.28 1740.32,527.72 1740.32,527.72"/>
    <path class="fil1 str0" d="M14071.13 14355.5c0,0 -72.83,364.17 97.11,667.64"/>
    <path class="fil1 str0" d="M14241.07 14828.91c0,0 -72.83,24.28 121.39,339.89"/>
   </g>
  </g>
 </g>
</svg>
